Coordinates
version=1
nRows=7
nColumns=40
inDegrees=yes

Units are S.I. units (second, meters, Newtons, ...)
Angles are in degrees.

endheader
time	pelvis_tilt	pelvis_list	pelvis_rotation	pelvis_tx	pelvis_ty	pelvis_tz	hip_flexion_r	hip_adduction_r	hip_rotation_r	knee_angle_r	knee_angle_r_beta	ankle_angle_r	subtalar_angle_r	mtp_angle_r	hip_flexion_l	hip_adduction_l	hip_rotation_l	knee_angle_l	knee_angle_l_beta	ankle_angle_l	subtalar_angle_l	mtp_angle_l	lumbar_extension	lumbar_bending	lumbar_rotation	arm_flex_r	arm_add_r	arm_rot_r	elbow_flex_r	pro_sup_r	wrist_flex_r	wrist_dev_r	arm_flex_l	arm_add_l	arm_rot_l	elbow_flex_l	pro_sup_l	wrist_flex_l	wrist_dev_l
     45.12000000	     -4.76148539	     -6.51557070	      3.37945260	      1.07262990	      0.92969899	      0.49710755	     14.53272303	      3.80861634	    -19.33854366	     16.28133324	     16.28133324	      8.33288721	      4.01307254	     -2.60666156	     34.50401391	    -15.23170219	      2.52670294	     70.10008185	     70.10008185	      8.30138479	    -17.89826783	     10.07997365	    -11.95531073	      7.10474134	      3.63803788	     19.23693450	    -17.72556596	     -2.27025233	     56.16322365	     25.94470072	      0.00000000	      0.00000000	      7.26470621	     -9.81893031	      1.37046900	     37.76761751	     26.09534354	      0.00000000	      0.00000000
     45.13171429	     -4.69607844	     -6.49594106	      3.50509872	      1.07157316	      0.93027780	      0.49753950	     13.63633620	      4.00225576	    -19.14514346	     15.69476882	     15.69476882	      8.64327001	      3.90145720	     -2.58420464	     35.74963006	    -15.17663257	      2.67658002	     68.36052073	     68.36052073	      8.37294668	    -17.85056884	     10.10496179	    -12.04450583	      7.00827493	      3.60792519	     21.67515282	    -17.61741030	     -2.35613739	     58.01533293	     26.23568197	      0.00000000	      0.00000000	      5.47544985	     -9.88947954	      1.72857563	     36.38699665	     26.43730737	      0.00000000	      0.00000000
     45.14342857	     -4.63900913	     -6.46939685	      3.63154326	      1.07053931	      0.93074290	      0.49791808	     12.76868124	      4.17224311	    -18.97984823	     15.14402199	     15.14402199	      8.96057661	      3.85626723	     -2.62459782	     36.80907853	    -15.09466686	      2.78616300	     66.34063241	     66.34063241	      8.32693731	    -17.80156218	     10.08285809	    -12.11943972	      6.91477137	      3.63024703	     24.10008766	    -17.61798388	     -2.16837793	     59.87100160	     26.56330634	      0.00000000	      0.00000000	      3.83726549	     -9.91397923	      2.05899486	     34.76210904	     26.83576384	      0.00000000	      0.00000000
     45.15514286	     -4.57162357	     -6.42353442	      3.73653123	      1.06955089	      0.93110953	      0.49823539	     11.89338323	      4.31742168	    -18.81850283	     14.59917012	     14.59917012	      9.29186990	      3.84752850	     -2.68403446	     37.65899938	    -14.96777068	      2.84795421	     64.04028208	     64.04028208	      8.21172114	    -17.75630871	     10.21507908	    -12.22087311	      6.79514411	      3.76242676	     26.49548686	    -17.67890755	     -1.97560408	     61.50791653	     26.82017841	      0.00000000	      0.00000000	      2.33772501	     -9.88810664	      2.31694912	     33.25118389	     27.15605142	      0.00000000	      0.00000000
     45.16685714	     -4.56038960	     -6.43009785	      3.83980432	      1.06857130	      0.93122222	      0.49844918	     11.05746864	      4.52475122	    -18.63488503	     13.97897141	     13.97897141	      9.46670730	      3.72974542	     -3.11852193	     38.39128520	    -14.88829898	      2.87988032	     61.44738003	     61.44738003	      7.96491286	    -17.63160034	      9.87307511	    -12.24177411	      6.76140038	      4.06729388	     28.70251566	    -18.38546558	     -0.46259854	     63.40225729	     28.18440332	      0.00000000	      0.00000000	      1.47832939	     -9.66528544	      2.84560176	     30.37051710	     28.67970532	      0.00000000	      0.00000000
     45.17857143	     -4.52198222	     -6.42916487	      3.97410236	      1.06766633	      0.93121994	      0.49845360	     10.18423318	      4.70376680	    -18.48953084	     13.36535280	     13.36535280	      9.83291189	      3.78187528	     -3.19925633	     38.93488371	    -14.67814045	      3.02873029	     58.60603149	     58.60603149	      7.88663610	    -17.51585320	     10.24376731	    -12.28954951	      6.70214826	      4.14307408	     30.99028554	    -18.24940846	     -0.67789830	     64.83361520	     28.46389410	      0.00000000	      0.00000000	     -0.15178800	     -9.68826950	      2.99964342	     29.44920478	     28.98702223	      0.00000000	      0.00000000
     45.19028571	     -4.63035182	     -6.40494703	      4.06148777	      1.06668838	      0.93080414	      0.49830636	      9.56861150	      4.80186153	    -18.34079245	     12.94899472	     12.94899472	     10.27984057	      3.78977645	     -3.34465960	     39.47407329	    -14.47524778	      3.03134401	     55.52527113	     55.52527113	      7.87659473	    -17.15935982	     10.61570616	    -12.16745625	      6.66462888	      4.60219355	     33.19617066	    -18.56310874	     -0.90218351	     65.90039247	     28.57491344	      0.00000000	      0.00000000	     -1.54733561	     -9.62397678	      3.10729029	     28.79547809	     29.10736170	      0.00000000	      0.00000000
